<mxfile host="app.diagrams.net" modified="2022-04-22T15:10:43.871Z" agent="5.0 (Macintosh; Intel Mac OS X 10_15_7) AppleWebKit/605.1.15 (KHTML, like Gecko) Version/15.4 Safari/605.1.15" etag="3X3xa-Ps7_dWTzysBNf2" version="17.4.6" type="github">
  <diagram id="prtHgNgQTEPvFCAcTncT" name="Page-1">
    <mxGraphModel dx="1280" dy="754" grid="1" gridSize="10" guides="1" tooltips="1" connect="1" arrows="1" fold="1" page="1" pageScale="1" pageWidth="827" pageHeight="1169" math="0" shadow="0">
      <root>
        <mxCell id="0" />
        <mxCell id="1" parent="0" />
        <mxCell id="cbHeU8gfhbA5Lvz1NeC9-2" value="Project" style="rounded=1;whiteSpace=wrap;html=1;" vertex="1" parent="1">
          <mxGeometry x="334" y="30" width="80" height="30" as="geometry" />
        </mxCell>
        <mxCell id="cbHeU8gfhbA5Lvz1NeC9-17" style="edgeStyle=orthogonalEdgeStyle;rounded=0;orthogonalLoop=1;jettySize=auto;html=1;exitX=0.5;exitY=1;exitDx=0;exitDy=0;endArrow=none;endFill=0;" edge="1" parent="1" source="cbHeU8gfhbA5Lvz1NeC9-3" target="cbHeU8gfhbA5Lvz1NeC9-6">
          <mxGeometry relative="1" as="geometry" />
        </mxCell>
        <mxCell id="cbHeU8gfhbA5Lvz1NeC9-31" style="edgeStyle=orthogonalEdgeStyle;rounded=0;orthogonalLoop=1;jettySize=auto;html=1;exitX=0.5;exitY=0;exitDx=0;exitDy=0;endArrow=none;endFill=0;strokeColor=default;" edge="1" parent="1" source="cbHeU8gfhbA5Lvz1NeC9-3" target="cbHeU8gfhbA5Lvz1NeC9-2">
          <mxGeometry relative="1" as="geometry" />
        </mxCell>
        <mxCell id="cbHeU8gfhbA5Lvz1NeC9-3" value="People" style="rounded=1;whiteSpace=wrap;html=1;" vertex="1" parent="1">
          <mxGeometry x="64" y="111" width="80" height="30" as="geometry" />
        </mxCell>
        <mxCell id="cbHeU8gfhbA5Lvz1NeC9-33" style="edgeStyle=orthogonalEdgeStyle;rounded=0;orthogonalLoop=1;jettySize=auto;html=1;exitX=0.5;exitY=0;exitDx=0;exitDy=0;entryX=0.5;entryY=1;entryDx=0;entryDy=0;endArrow=none;endFill=0;strokeColor=default;" edge="1" parent="1" source="cbHeU8gfhbA5Lvz1NeC9-4" target="cbHeU8gfhbA5Lvz1NeC9-2">
          <mxGeometry relative="1" as="geometry" />
        </mxCell>
        <mxCell id="cbHeU8gfhbA5Lvz1NeC9-4" value="Product" style="rounded=1;whiteSpace=wrap;html=1;" vertex="1" parent="1">
          <mxGeometry x="334" y="111" width="80" height="30" as="geometry" />
        </mxCell>
        <mxCell id="cbHeU8gfhbA5Lvz1NeC9-26" style="edgeStyle=orthogonalEdgeStyle;rounded=0;orthogonalLoop=1;jettySize=auto;html=1;exitX=0.5;exitY=1;exitDx=0;exitDy=0;entryX=0.5;entryY=0;entryDx=0;entryDy=0;endArrow=none;endFill=0;strokeColor=default;" edge="1" parent="1" source="cbHeU8gfhbA5Lvz1NeC9-5" target="cbHeU8gfhbA5Lvz1NeC9-9">
          <mxGeometry relative="1" as="geometry" />
        </mxCell>
        <mxCell id="cbHeU8gfhbA5Lvz1NeC9-32" style="edgeStyle=orthogonalEdgeStyle;rounded=0;orthogonalLoop=1;jettySize=auto;html=1;exitX=0.5;exitY=0;exitDx=0;exitDy=0;entryX=0.5;entryY=1;entryDx=0;entryDy=0;endArrow=none;endFill=0;strokeColor=default;" edge="1" parent="1" source="cbHeU8gfhbA5Lvz1NeC9-5" target="cbHeU8gfhbA5Lvz1NeC9-2">
          <mxGeometry relative="1" as="geometry" />
        </mxCell>
        <mxCell id="cbHeU8gfhbA5Lvz1NeC9-5" value="Process" style="rounded=1;whiteSpace=wrap;html=1;" vertex="1" parent="1">
          <mxGeometry x="669" y="111" width="80" height="30" as="geometry" />
        </mxCell>
        <mxCell id="cbHeU8gfhbA5Lvz1NeC9-6" value="&amp;nbsp;Roles&lt;br&gt;&amp;nbsp;Responsibilities&lt;br&gt;&amp;nbsp;Security&lt;br&gt;&amp;nbsp;Onboarding&lt;br&gt;&amp;nbsp;Offboarding" style="rounded=1;whiteSpace=wrap;html=1;align=left;fillColor=#E6E6E6;" vertex="1" parent="1">
          <mxGeometry x="54" y="321" width="100" height="80" as="geometry" />
        </mxCell>
        <mxCell id="cbHeU8gfhbA5Lvz1NeC9-18" style="edgeStyle=orthogonalEdgeStyle;rounded=0;orthogonalLoop=1;jettySize=auto;html=1;exitX=0.5;exitY=1;exitDx=0;exitDy=0;entryX=0.45;entryY=0;entryDx=0;entryDy=0;entryPerimeter=0;endArrow=none;endFill=0;" edge="1" parent="1" source="cbHeU8gfhbA5Lvz1NeC9-7" target="cbHeU8gfhbA5Lvz1NeC9-10">
          <mxGeometry relative="1" as="geometry" />
        </mxCell>
        <mxCell id="cbHeU8gfhbA5Lvz1NeC9-27" style="edgeStyle=orthogonalEdgeStyle;rounded=0;orthogonalLoop=1;jettySize=auto;html=1;exitX=0.5;exitY=0;exitDx=0;exitDy=0;entryX=0.5;entryY=1;entryDx=0;entryDy=0;endArrow=none;endFill=0;strokeColor=default;" edge="1" parent="1" source="cbHeU8gfhbA5Lvz1NeC9-7" target="cbHeU8gfhbA5Lvz1NeC9-4">
          <mxGeometry relative="1" as="geometry" />
        </mxCell>
        <mxCell id="cbHeU8gfhbA5Lvz1NeC9-7" value="System" style="rounded=1;whiteSpace=wrap;html=1;" vertex="1" parent="1">
          <mxGeometry x="228" y="192" width="80" height="30" as="geometry" />
        </mxCell>
        <mxCell id="cbHeU8gfhbA5Lvz1NeC9-28" style="edgeStyle=orthogonalEdgeStyle;rounded=0;orthogonalLoop=1;jettySize=auto;html=1;exitX=0.5;exitY=0;exitDx=0;exitDy=0;entryX=0.5;entryY=1;entryDx=0;entryDy=0;endArrow=none;endFill=0;strokeColor=default;" edge="1" parent="1" source="cbHeU8gfhbA5Lvz1NeC9-8" target="cbHeU8gfhbA5Lvz1NeC9-4">
          <mxGeometry relative="1" as="geometry" />
        </mxCell>
        <mxCell id="cbHeU8gfhbA5Lvz1NeC9-8" value="Users" style="rounded=1;whiteSpace=wrap;html=1;" vertex="1" parent="1">
          <mxGeometry x="444" y="192" width="80" height="30" as="geometry" />
        </mxCell>
        <mxCell id="cbHeU8gfhbA5Lvz1NeC9-9" value="&amp;nbsp;Standards&lt;br&gt;&amp;nbsp;Plans&lt;br&gt;&amp;nbsp;Estimates&lt;br&gt;&amp;nbsp;Schedules&lt;br&gt;&amp;nbsp;Change Management&lt;br&gt;&amp;nbsp;Metrics&lt;br&gt;&amp;nbsp;Reports" style="rounded=1;whiteSpace=wrap;html=1;align=left;fillColor=#E6E6E6;" vertex="1" parent="1">
          <mxGeometry x="644" y="321" width="130" height="110" as="geometry" />
        </mxCell>
        <mxCell id="cbHeU8gfhbA5Lvz1NeC9-10" value="&lt;div style=&quot;text-align: left&quot;&gt;Requirements&lt;/div&gt;&lt;div style=&quot;text-align: left&quot;&gt;Component Design&lt;/div&gt;&lt;div style=&quot;text-align: left&quot;&gt;UX Design&lt;/div&gt;&lt;div style=&quot;text-align: left&quot;&gt;Architecture&lt;/div&gt;&lt;div style=&quot;text-align: left&quot;&gt;Roadmaps&lt;/div&gt;&lt;div style=&quot;text-align: left&quot;&gt;Testing&lt;/div&gt;&lt;div style=&quot;text-align: left&quot;&gt;Monitoring&lt;/div&gt;&lt;div style=&quot;text-align: left&quot;&gt;Support&lt;/div&gt;&lt;div style=&quot;text-align: left&quot;&gt;CM History&lt;/div&gt;" style="rounded=1;whiteSpace=wrap;html=1;fillColor=#E6E6E6;" vertex="1" parent="1">
          <mxGeometry x="214" y="321" width="120" height="140" as="geometry" />
        </mxCell>
        <mxCell id="cbHeU8gfhbA5Lvz1NeC9-24" style="edgeStyle=orthogonalEdgeStyle;rounded=0;orthogonalLoop=1;jettySize=auto;html=1;exitX=0.5;exitY=1;exitDx=0;exitDy=0;entryX=0.5;entryY=0;entryDx=0;entryDy=0;endArrow=none;endFill=0;strokeColor=default;" edge="1" parent="1" source="cbHeU8gfhbA5Lvz1NeC9-11" target="cbHeU8gfhbA5Lvz1NeC9-12">
          <mxGeometry relative="1" as="geometry" />
        </mxCell>
        <mxCell id="cbHeU8gfhbA5Lvz1NeC9-29" style="edgeStyle=orthogonalEdgeStyle;rounded=0;orthogonalLoop=1;jettySize=auto;html=1;exitX=0.5;exitY=0;exitDx=0;exitDy=0;entryX=0.5;entryY=1;entryDx=0;entryDy=0;endArrow=none;endFill=0;strokeColor=default;" edge="1" parent="1" source="cbHeU8gfhbA5Lvz1NeC9-11" target="cbHeU8gfhbA5Lvz1NeC9-8">
          <mxGeometry relative="1" as="geometry" />
        </mxCell>
        <mxCell id="cbHeU8gfhbA5Lvz1NeC9-11" value="Admins" style="rounded=1;whiteSpace=wrap;html=1;" vertex="1" parent="1">
          <mxGeometry x="384" y="272" width="80" height="30" as="geometry" />
        </mxCell>
        <mxCell id="cbHeU8gfhbA5Lvz1NeC9-12" value="Training&lt;br&gt;User Guides" style="rounded=1;whiteSpace=wrap;html=1;align=left;fillColor=#E6E6E6;" vertex="1" parent="1">
          <mxGeometry x="384" y="321" width="80" height="40" as="geometry" />
        </mxCell>
        <mxCell id="cbHeU8gfhbA5Lvz1NeC9-25" style="edgeStyle=orthogonalEdgeStyle;rounded=0;orthogonalLoop=1;jettySize=auto;html=1;exitX=0.5;exitY=1;exitDx=0;exitDy=0;entryX=0.5;entryY=0;entryDx=0;entryDy=0;endArrow=none;endFill=0;strokeColor=default;" edge="1" parent="1" source="cbHeU8gfhbA5Lvz1NeC9-13" target="cbHeU8gfhbA5Lvz1NeC9-14">
          <mxGeometry relative="1" as="geometry" />
        </mxCell>
        <mxCell id="cbHeU8gfhbA5Lvz1NeC9-30" style="edgeStyle=orthogonalEdgeStyle;rounded=0;orthogonalLoop=1;jettySize=auto;html=1;exitX=0.5;exitY=0;exitDx=0;exitDy=0;entryX=0.5;entryY=1;entryDx=0;entryDy=0;endArrow=none;endFill=0;strokeColor=default;" edge="1" parent="1" source="cbHeU8gfhbA5Lvz1NeC9-13" target="cbHeU8gfhbA5Lvz1NeC9-8">
          <mxGeometry relative="1" as="geometry" />
        </mxCell>
        <mxCell id="cbHeU8gfhbA5Lvz1NeC9-13" value="Non-Admins" style="rounded=1;whiteSpace=wrap;html=1;" vertex="1" parent="1">
          <mxGeometry x="514" y="272" width="80" height="30" as="geometry" />
        </mxCell>
        <mxCell id="cbHeU8gfhbA5Lvz1NeC9-14" value="Training&lt;br&gt;User Guides" style="rounded=1;whiteSpace=wrap;html=1;align=left;fillColor=#E6E6E6;" vertex="1" parent="1">
          <mxGeometry x="514" y="321" width="80" height="40" as="geometry" />
        </mxCell>
        <mxCell id="cbHeU8gfhbA5Lvz1NeC9-15" style="edgeStyle=orthogonalEdgeStyle;rounded=0;orthogonalLoop=1;jettySize=auto;html=1;exitX=0.5;exitY=1;exitDx=0;exitDy=0;" edge="1" parent="1" source="cbHeU8gfhbA5Lvz1NeC9-12" target="cbHeU8gfhbA5Lvz1NeC9-12">
          <mxGeometry relative="1" as="geometry" />
        </mxCell>
      </root>
    </mxGraphModel>
  </diagram>
</mxfile>
